<svg version="1.2" xmlns="http://www.w3.org/2000/svg" viewBox="188 160 887 877" width="887" height="877">
	<defs>
		<clipPath clipPathUnits="userSpaceOnUse" id="cp1">
			<path d="m419.1 299.6c-21.52 2.93-46.23 16.6-75.03 44.14l29.43 3.68-0.74 36.04c0 0 24.44-47.01 55.17-58.11z"/>
		</clipPath>
		<clipPath clipPathUnits="userSpaceOnUse" id="cp2">
			<path d="m422.33 279.88c-20.96-8.36-50.28-8.63-90.4 1.55l24.72 18.37-19.08 32.21c0 0 46.13-30.01 79.58-24.34l5.18-27.79z"/>
		</clipPath>
		<clipPath clipPathUnits="userSpaceOnUse" id="cp3">
			<path d="m582.03 160.19c-124.39 0-193.06 105.53-193.06 208.56l194.07 14.71 192.05-14.71c0-103.03-77.48-208.56-193.06-208.56z"/>
		</clipPath>
		<clipPath clipPathUnits="userSpaceOnUse" id="cp4">
			<path d="m535.87 499.31c4.97 66.48-37.85 129.15-104.63 146.83-75.35 19.94-152.61-24.97-172.56-100.33-19.95-75.35 24.97-152.61 100.32-172.56 66.77-17.67 135.01 15.6 163.57 75.83l388.34-102.8-19.49-73.62 29.69-7.86-5.81-21.96-29.69 7.86-11.09-41.89 41.89-11.09 7.98 30.17 36.4-9.64-7.98-30.16 41.88-11.09 11.09 41.88-29.69 7.86 5.82 21.96 29.69-7.86 19.48 73.62 30.05-7.95 13.29 50.24-538.55 142.56zm-163.02-73.74c-46.46 12.29-74.16 59.93-61.86 106.4 12.3 46.46 59.94 74.16 106.4 61.86 46.47-12.31 74.16-59.94 61.86-106.41-12.3-46.46-59.93-74.15-106.4-61.85z"/>
		</clipPath>
		<clipPath clipPathUnits="userSpaceOnUse" id="cp5">
			<path d="m396.51 309.75c0 0 180.81-46.36 370.06-0.65-2.35-35.41-29.74-74.29-53.89-96.11 0 0-123.59-49.13-266.91 1.73-29.32 31.24-46.85 62.88-49.26 95.03z"/>
		</clipPath>
	</defs>
	<style>
		.s0 { fill: #a8c0dc } 
		.s1 { fill: #585e62 } 
		.s2 { fill: #607d9d } 
		.s3 { fill: #47607c } 
		.s4 { fill: #5fbd61 } 
		.s5 { fill: #85a1c1 } 
		.s6 { fill: #cccccc } 
		.s7 { mix-blend-mode: multiply;fill: #999999 } 
		.s8 { fill: #49b04a } 
		.s9 { fill: #b3b3b3 } 
		.s10 { fill: #35393b } 
		.s11 { fill: #1f2f38 } 
		.s12 { fill: #ffbd39 } 
		.s13 { fill: #354960 } 
		.s14 { fill: #f4ab00 } 
		.s15 { fill: none } 
		.s16 { fill: #e3f1ff } 
		.s17 { fill: #223444 } 
	</style>
	<g id="Layer 1">
		<path id="&lt;Path&gt;" class="s0" d="m974.16 1036.31h-785.94v-168.03h785.94z"/>
		<path id="&lt;Path&gt;" class="s1" d="m287.42 542.94c-11.36-5.81-15.86-19.72-10.05-31.08l31.67-61.92 41.13 21.03-31.67 61.92c-5.81 11.36-19.72 15.86-31.08 10.05z"/>
		<path id="&lt;Path&gt;" class="s2" d="m882.61 789.42l91.55 78.86h-784.26l91.55-78.86z"/>
		<path id="&lt;Path&gt;" class="s3" d="m807.47 807.07h-455.56v44.16h455.56z"/>
		<path id="&lt;Path&gt;" class="s4" d="m280.43 899.49v23.54h-46.35v-23.54h46.35z"/>
		<path id="&lt;Path&gt;" class="s4" d="m345.43 899.49v23.54h-46.34v-23.54h46.34z"/>
		<path id="&lt;Path&gt;" class="s4" d="m280.43 941.37v23.54h-46.35v-23.54z"/>
		<path id="&lt;Path&gt;" class="s4" d="m345.43 941.37v23.54h-46.34v-23.54z"/>
		<path id="&lt;Path&gt;" class="s4" d="m280.43 983.25v23.54h-46.35v-23.54z"/>
		<path id="&lt;Path&gt;" class="s4" d="m345.43 983.25v23.54h-46.34v-23.54z"/>
		<path id="&lt;Path&gt;" class="s5" d="m419.1 299.6c-21.52 2.93-46.23 16.6-75.03 44.14l29.43 3.68-0.74 36.04c0 0 24.44-47.01 55.17-58.11z"/>
		<g id="&lt;Clip Group&gt;" clip-path="url(#cp1)">
			<path id="&lt;Path&gt;" class="s3" d="m367.52 319.26c0 0 17.82 20.08 21.45 49.49l23.43-15.14-6.6-60.68z"/>
		</g>
		<path id="&lt;Path&gt;" class="s5" d="m422.33 279.88c-20.96-8.36-50.28-8.63-90.4 1.55l24.72 18.37-19.08 32.21c0 0 46.13-30.01 79.58-24.34l5.18-27.79z"/>
		<g id="&lt;Clip Group&gt;" clip-path="url(#cp2)">
			<path id="&lt;Path&gt;" class="s3" d="m389.47 266.82c0 0-0.17 36.96-23.93 56.76l45.54-6.01 14.11-48.44z"/>
		</g>
		<path id="&lt;Path&gt;" class="s6" d="m582.03 160.19c-124.39 0-193.06 105.53-193.06 208.56l194.07 14.71 192.05-14.71c0-103.03-77.48-208.56-193.06-208.56z"/>
		<path id="&lt;Path&gt;" class="s1" d="m582.03 199.32c-101.05 0-156.84 85.74-156.84 169.43l156.84 17.79 156.84-17.79c0-83.69-62.95-169.43-156.84-169.43z"/>
		<g id="&lt;Clip Group&gt;" clip-path="url(#cp3)">
			<path id="&lt;Path&gt;" class="s7" d="m390.19 321.5c0 0 152.24-72.2 384.4 0v-25.82l-196.51-37.29-187.33 40.92z"/>
		</g>
		<path id="&lt;Path&gt;" class="s8" d="m539.41 309.1c0 4.68-3.79 8.47-8.47 8.47-4.68 0-8.47-3.79-8.47-8.47 0-4.68 3.79-8.47 8.47-8.47 4.68 0 8.47 3.79 8.47 8.47z"/>
		<path id="&lt;Path&gt;" class="s8" d="m572.72 321.6c0 4.68-3.79 8.48-8.47 8.48-4.68 0-8.47-3.8-8.47-8.48 0-4.67 3.79-8.47 8.47-8.47 4.68 0 8.47 3.8 8.47 8.47z"/>
		<path id="&lt;Path&gt;" class="s8" d="m606.03 321.6c0 4.68-3.79 8.48-8.47 8.48-4.68 0-8.47-3.8-8.47-8.48 0-4.67 3.79-8.47 8.47-8.47 4.68 0 8.47 3.8 8.47 8.47z"/>
		<path id="&lt;Path&gt;" class="s8" d="m639.35 309.1c0 4.68-3.8 8.47-8.48 8.47-4.68 0-8.47-3.79-8.47-8.47 0-4.68 3.79-8.47 8.47-8.47 4.68 0 8.48 3.79 8.48 8.47z"/>
		<path id="&lt;Path&gt;" class="s6" d="m254.26 591.47l-2.75-3.29c-12.89-15.4-10.86-38.33 4.54-51.22l25.57-21.41c15.4-12.89 38.33-10.86 51.22 4.54l2.75 3.28c12.89 15.4 10.86 38.33-4.54 51.22l-25.57 21.41c-15.39 12.89-38.33 10.86-51.22-4.53z"/>
		<path id="&lt;Path&gt;" class="s6" d="m388.36 470.41c-13.89 27.14-47.15 37.89-74.3 24.01-27.14-13.89-37.89-47.14-24.01-74.29 13.88-27.15 47.14-37.9 74.29-24.02 27.15 13.89 37.9 47.15 24.02 74.3z"/>
		<path id="&lt;Path&gt;" class="s9" d="m365.32 396.92c-22.66-12.5-50.27-7.39-67.11 10.76 8.21 0.37 16.46 2.57 24.15 6.81 26.7 14.72 36.41 48.3 21.69 75-2.23 4.04-4.89 7.69-7.9 10.93 20.32 0.9 40.37-9.48 50.86-28.5 14.72-26.7 5.01-60.28-21.69-75z"/>
		<path id="&lt;Path&gt;" class="s6" d="m777.72 470.41c13.88 27.14 47.14 37.89 74.29 24.01 27.15-13.89 37.9-47.14 24.01-74.29-13.88-27.15-47.14-37.9-74.29-24.02-27.14 13.89-37.89 47.15-24.01 74.3z"/>
		<path id="&lt;Path&gt;" class="s9" d="m800.76 396.92c22.66-12.5 50.27-7.39 67.1 10.76-8.21 0.37-16.46 2.57-24.14 6.81-26.7 14.72-36.42 48.3-21.7 75 2.23 4.04 4.9 7.69 7.9 10.93-20.32 0.9-40.37-9.48-50.85-28.5-14.72-26.7-5.01-60.28 21.69-75z"/>
		<path id="&lt;Path&gt;" class="s1" d="m358.47 851.82c-26.97 0-49.29-29.31-55.55-72.94-3.35-23.41-1.66-47.95 4.77-69.11 6.92-22.78 18.76-39.43 33.34-46.88 5.57-2.85 11.43-4.3 17.42-4.3h76.16v193.23h-76.14z"/>
		<path id="&lt;Path&gt;" class="s1" d="m840.06 464.63c12.64 0 22.9 10.26 22.9 22.9 0 12.64-10.26 22.9-22.9 22.9-12.64 0-22.91-10.26-22.91-22.9 0-12.64 10.27-22.9 22.91-22.9z"/>
		<path id="&lt;Path&gt;" class="s1" d="m433.98 851.82c-15.64 0-28.58-29.31-32.21-72.94-1.94-23.41-0.96-47.95 2.77-69.11 4.01-22.78 10.87-39.43 19.32-46.88 3.24-2.85 6.63-4.3 10.11-4.3 3.46 0 6.86 1.44 10.11 4.27l36.56 32.24c12.78 11.27 17.21 47.08 14.88 75.06-1.79 21.53-7.34 38.39-14.85 45.08l-36.55 32.23c-3.27 2.89-6.68 4.35-10.14 4.35z"/>
		<path id="&lt;Path&gt;" class="s10" d="m440.7 674.42l36.52 32.21c8.23 7.26 13.1 34.88 10.87 61.69-1.48 17.86-5.76 30.87-10.87 35.41l-36.52 32.21c-13.69 12.08-27.79-14.29-31.5-58.9-3.7-44.6 4.39-90.55 18.08-102.62 4.53-3.99 9.2-3.68 13.42 0z"/>
		<path id="&lt;Path&gt;" class="s1" d="m801.27 851.82c26.97 0 49.3-29.31 55.55-72.94 3.35-23.41 1.66-47.95-4.77-69.11-6.92-22.78-18.76-39.43-33.34-46.88-5.57-2.85-11.43-4.3-17.42-4.3h-76.16v193.23z"/>
		<path id="&lt;Path&gt;" class="s1" d="m725.76 851.82c15.64 0 28.58-29.31 32.21-72.94 1.94-23.41 0.96-47.95-2.77-69.11-4.01-22.78-10.88-39.43-19.33-46.88-3.23-2.85-6.63-4.3-10.1-4.3-3.46 0-6.86 1.44-10.11 4.27l-36.56 32.24c-12.78 11.27-17.2 47.08-14.88 75.06 1.79 21.53 7.34 38.39 14.85 45.08l36.55 32.23c3.27 2.89 6.68 4.35 10.14 4.35z"/>
		<path id="&lt;Path&gt;" class="s10" d="m719.04 674.42l-36.52 32.21c-8.23 7.26-13.1 34.88-10.87 61.69 1.48 17.86 5.76 30.87 10.87 35.41l36.52 32.21c13.69 12.08 27.79-14.29 31.49-58.9 3.71-44.6-4.38-90.55-18.07-102.62-4.52-3.99-9.2-3.68-13.42 0z"/>
		<path id="&lt;Path&gt;" class="s6" d="m799.73 492.23c-3.17-10.93-3.46-22.57-0.42-33.54 10.85-39.09 3.73-82.25 3.73-82.25-136.15-42.47-220.75-0.33-220.75-0.33 0 0-84.48-42.4-220.74-0.33 0 0-7.26 43.14 3.47 82.26 3.01 10.97 2.68 22.62-0.51 33.54-3.79 12.93-7.88 32.73-7.92 57.97-0.28 183.17 225.08 239.87 225.08 239.87 0 0 225.52-56.02 225.8-239.2 0.04-25.23-4-45.05-7.74-57.99z"/>
		<path id="&lt;Path&gt;" class="s8" d="m581.77 755.21c-37.31-11.69-192.51-68.6-192.3-205.61 0.03-21.81 3.6-38.57 6.59-48.78 4.99-17.06 5.22-34.86 0.66-51.48-4.55-16.61-5.07-34.67-4.53-48.03 29.78-7.52 58.99-11.31 87.1-11.27 55.66 0.09 88.17 15.42 88.5 15.57l15 7.53 14.16-7.6c0.08-0.04 32.63-15.27 88.3-15.19 28.1 0.05 57.31 3.92 87.07 11.53 0.49 13.35-0.08 31.42-4.69 48.02-4.6 16.61-4.43 34.4 0.51 51.47 2.97 10.23 6.49 26.99 6.45 48.81-0.2 137.62-155.4 193.55-192.82 205.03z"/>
		<path id="&lt;Path&gt;" class="s11" d="m624.3 512.38c0.04-23.35-18.86-42.3-42.21-42.34-23.34-0.03-42.29 18.87-42.33 42.21-0.03 20.15 14.05 36.99 32.9 41.26l-23.72 99.66 32.86 9.44 32.89-9.35-23.42-99.72c18.87-4.22 33-21.02 33.03-41.16z"/>
		<path id="&lt;Path&gt;" class="s5" d="m396.51 309.75c0 0 180.81-46.36 370.06-0.65-2.35-35.41-29.74-74.29-53.89-96.11 0 0-123.59-49.13-266.91 1.73-29.32 31.24-46.85 62.88-49.26 95.03z"/>
		<path id="&lt;Path&gt;" class="s2" d="m915.86 899.49c7.8 0 14.12 6.32 14.12 14.11 0 20.56 0 58.52 0 79.07 0 3.75-1.49 7.34-4.14 9.98-2.64 2.65-6.23 4.14-9.98 4.14-76.52 0-441.07 0-517.6 0-7.79 0-14.11-6.32-14.11-14.12 0-20.55 0-58.51 0-79.07 0-3.74 1.48-7.33 4.13-9.98 2.65-2.65 6.24-4.13 9.98-4.13 76.53 0 441.08 0 517.6 0z"/>
		<path id="&lt;Path&gt;" class="s12" d="m832.16 937.67c8.54 0 15.48 6.93 15.48 15.47 0 8.54-6.94 15.47-15.48 15.47-8.54 0-15.47-6.93-15.47-15.47 0-8.54 6.93-15.47 15.47-15.47z"/>
		<path id="&lt;Path&gt;" class="s8" d="m881.79 937.67c8.54 0 15.47 6.93 15.47 15.47 0 8.54-6.93 15.47-15.47 15.47-8.54 0-15.47-6.93-15.47-15.47 0-8.54 6.93-15.47 15.47-15.47z"/>
		<path id="&lt;Path&gt;" class="s13" d="m779.91 953.14c0 8.54-6.93 15.47-15.47 15.47h-334.66c-8.54 0-15.47-6.93-15.47-15.47 0-8.54 6.93-15.47 15.47-15.47h334.66c8.54 0 15.47 6.93 15.47 15.47z"/>
		<path id="&lt;Path&gt;" class="s1" d="m886.22 436.03q-0.45-0.06-0.91-0.13c-33.22-4.91-56.26-35.93-51.34-69.16 2.96-20.04 15.65-37.25 33.93-46.02 7.33-3.52 16.12-0.43 19.63 6.89 3.52 7.33 0.43 16.12-6.9 19.63-9.46 4.55-16.02 13.44-17.56 23.81-1.22 8.32 0.86 16.62 5.87 23.37 5.02 6.75 12.36 11.15 20.67 12.37q0.26 0.04 0.52 0.08c-2.29 8.08-3.49 18.42-3.91 29.16z"/>
		<path id="&lt;Compound Path&gt;" fill-rule="evenodd" class="s14" d="m1061.13 306.51l13.29 50.24-538.55 142.56c4.97 66.48-37.85 129.15-104.63 146.83-75.35 19.94-152.61-24.97-172.56-100.33-19.95-75.35 24.97-152.61 100.32-172.56 66.77-17.67 135.01 15.6 163.57 75.83zm-688.27 119.05c-46.46 12.3-74.16 59.94-61.86 106.4 12.3 46.47 59.94 74.16 106.4 61.86 46.46-12.3 74.16-59.94 61.86-106.4-12.3-46.47-59.94-74.16-106.4-61.86z"/>
		<path id="&lt;Path&gt;" class="s12" d="m522.57 449.08l-15.4 33.82 560.71-150.89-6.75-25.5z"/>
		<g id="&lt;Group&gt;">
			<path id="&lt;Path&gt;" class="s14" d="m918.48 344.26l-54.41 14.44-22.79-85.91c-1.36-5.12 1.7-10.38 6.82-11.74l35.85-9.51c5.13-1.36 10.38 1.7 11.74 6.82z"/>
			<path id="&lt;Path&gt;" class="s14" d="m1021.96 316.81l-54.41 14.43-22.79-85.9c-1.36-5.12 1.7-10.38 6.82-11.74l35.85-9.51c5.13-1.36 10.38 1.69 11.74 6.82z"/>
			<path id="&lt;Path&gt;" class="s14" d="m985.71 326.42l-84.32 22.37-14.11-53.18 84.32-22.37z"/>
		</g>
		<path id="&lt;Compound Path&gt;" fill-rule="evenodd" class="s15" d="m535.87 499.31c4.97 66.48-37.85 129.15-104.63 146.83-75.35 19.94-152.61-24.97-172.56-100.33-19.95-75.35 24.97-152.61 100.32-172.56 66.77-17.67 135.01 15.6 163.57 75.83l388.34-102.8-19.49-73.62 29.69-7.86-5.81-21.96-29.69 7.86-11.09-41.89 41.89-11.09 7.98 30.17 36.4-9.64-7.98-30.16 41.88-11.09 11.09 41.88-29.69 7.86 5.82 21.96 29.69-7.86 19.48 73.62 30.05-7.95 13.29 50.24-538.55 142.56zm-163.02-73.74c-46.46 12.29-74.16 59.93-61.86 106.4 12.3 46.46 59.94 74.16 106.4 61.86 46.47-12.31 74.16-59.94 61.86-106.41-12.3-46.46-59.93-74.15-106.4-61.85z"/>
		<path id="&lt;Path&gt;" class="s1" d="m890.13 406.87c16.98 2.22 32.72-9.61 35.23-26.62 1.55-10.47-2.23-20.95-10.12-28.04-6.04-5.43-6.53-14.73-1.1-20.78 5.06-5.62 13.46-6.44 19.47-2.15q0.68 0.49 1.31 1.05c15.24 13.7 22.54 33.98 19.55 54.22-4.86 32.93-35.37 55.84-68.25 51.48 0.42-10.74 1.62-21.08 3.91-29.16z"/>
		<path id="&lt;Path&gt;" class="s6" d="m891.15 418.29l-4.54-0.86c-21.26-4.03-41.76 9.93-45.79 31.19l-6.69 35.31c-4.03 21.26 9.93 41.76 31.19 45.79l4.54 0.86c21.25 4.03 41.76-9.93 45.79-31.19l6.69-35.31c4.03-21.26-9.94-41.76-31.19-45.79z"/>
		<path id="&lt;Path&gt;" class="s3" d="m619.36 265.86c0 0 48.49-5.01 96.98 13.51 0 0-36.05-37.28-96.98-13.51z"/>
		<g id="&lt;Clip Group&gt;" clip-path="url(#cp4)">
			<g id="&lt;Group&gt;">
				<path id="&lt;Path&gt;" class="s12" d="m510.47 510.43c0-64.09-51.96-116.04-116.05-116.04-9.49 0-18.72 1.15-27.55 3.3l64.84 222.67c45.8-15.53 78.76-58.88 78.76-109.93z"/>
			</g>
			<g id="&lt;Group&gt;">
				<path id="&lt;Path&gt;" class="s12" d="m247.72 505.61c0 89.6 72.64 162.23 162.23 162.23 13.28 0 26.17-1.6 38.52-4.61l-90.64-311.3c-64.03 21.72-110.11 82.32-110.11 153.68z"/>
			</g>
		</g>
		<path id="&lt;Path&gt;" class="s1" d="m348.66 546.26l-14.42 15.88c-6.76 7.45-18.29 8-25.74 1.24-7.44-6.75-8-18.29-1.24-25.73l14.42-15.88c6.76-7.45 18.29-8 25.74-1.25 7.44 6.76 8 18.3 1.24 25.74z"/>
		<path id="&lt;Path&gt;" class="s1" d="m283.8 589.06l-16.91 8.89c-8.9 4.67-19.93 1.24-24.6-7.66-4.68-8.9-1.25-19.93 7.65-24.6l16.92-8.89c8.9-4.68 19.92-1.24 24.6 7.66 4.68 8.9 1.24 19.92-7.66 24.6z"/>
		<g id="&lt;Clip Group&gt;" clip-path="url(#cp5)">
			<path id="&lt;Path&gt;" class="s3" d="m519.79 196.24c0 0-26.43 5.9-43.59 35.93 0 0 23.43-7.59 59.07-4.62 0 0-51.15 9.57-70.95 38.94 0 0-7.59 12.65 0 30.92l-88.77 24.2 46.78-114.19z"/>
		</g>
		<g id="&lt;Group&gt;">
			<path id="&lt;Path&gt;" class="s16" d="m766.57 309.1c-2.2-18.51-10.3-36.01-19.99-51.72-4.91-7.89-10.45-15.37-16.35-22.52-5.93-7.13-12.35-13.86-19.18-20.07l0.74 0.46c-35.27-12.39-72.69-18.81-109.91-21.68-12.34-1.04-25.21-1.31-37.62-1.56 25.14-2.09 50.44-1.49 75.49 1.54 25.06 3.24 50.1 8.37 73.83 17.18 0 0 0.4 0.15 0.4 0.15l0.33 0.31c26.14 24.51 50.88 61.21 52.26 97.91z"/>
		</g>
		<g id="&lt;Group&gt;">
			<path id="&lt;Path&gt;" class="s17" d="m396.51 309.75c44.89-13.2 91.86-19.4 138.5-22.13 31-1.65 62.68-1.41 93.61 1.55 5.18 0.5 10.35 1.02 15.52 1.62-10.41 0.2-20.77-0.17-31.16 0.06-72.49 0.44-145.02 6.52-216.47 18.9z"/>
		</g>
		<g id="&lt;Group&gt;">
			<path id="&lt;Path&gt;" class="s17" d="m489.21 202.05c-10.7 3.71-21.44 7.19-32.07 11.06q-5.3 1.9-10.57 3.87l0.95-0.62c-7.99 8.78-15.62 17.85-22.72 27.35-7.17 9.54-13.54 19.51-19.34 29.98 3.03-10.11 7.79-19.69 13.33-28.66 7.25-11.76 16.08-22.48 25.66-32.39 14.56-4.87 29.51-8.7 44.76-10.59z"/>
		</g>
	</g>
</svg>